<svg xmlns="http://www.w3.org/2000/svg" viewBox="0 0 841.9 595.3"><g fill="#61DAFB"><path d="M666.3 296.5c0-32.5-40.7-63.3-103.1-82.4 14.4-63.6 8-114.2-20.2-130.4-6.5-3.8-14.1-5.6-22.4-5.6v22.3c4.6 0 8.3.9 11.4 2.6 13.6 7.8 19.5 37.5 14.9 75.7-1.1 9.4-2.9 19.3-5.1 29.4-19.6-4.8-41-8.5-63.5-10.9-13.5-38.5-27.5-72.8-40.8-99.8-5.3-10.7-10.3-19.8-14.8-26.8-2.9-4.4-5.4-8-7.4-10.6-2-2.6-3.3-4.1-3.3-4.1s-1.3 1.5-3.3 4.1c-2 2.6-4.5 6.2-7.4 10.6-4.5 7-9.5 16.1-14.8 26.8-13.3 27-27.3 61.3-40.8 99.8-22.5 2.4-43.9 6.1-63.5 10.9-2.2-10.1-4-20-5.1-29.4-4.6-38.2 1.3-67.9 14.9-75.7 3.1-1.8 6.9-2.6 11.4-2.6V78.1c-8.3 0-15.9 1.9-22.4 5.6-28.2 16.2-34.6 66.8-20.2 130.4-62.4 19.1-103.1 49.9-103.1 82.4 0 32.5 40.7 63.3 103.1 82.4-14.4 63.6-8 114.2 20.2 130.4 6.5 3.8 14.1 5.6 22.4 5.6v-22.3c-4.6 0-8.3-.9-11.4-2.6-13.6-7.8-19.5-37.5-14.9-75.7 1.1-9.4 2.9-19.3 5.1-29.4 19.6 4.8 41 8.5 63.5 10.9 13.5 38.5 27.5 72.8 40.8 99.8 5.3 10.7 10.3 19.8 14.8 26.8 2.9 4.4 5.4 8 7.4 10.6 2 2.6 3.3 4.1 3.3 4.1s1.3-1.5 3.3-4.1c2-2.6 4.5-6.2 7.4-10.6 4.5-7 9.5-16.1 14.8-26.8 13.3-27 27.3-61.3 40.8-99.8 22.5-2.4 43.9-6.1 63.5-10.9 2.2 10.1 4 20 5.1 29.4 4.6 38.2-1.3 67.9-14.9 75.7-3.1 1.8-6.9 2.6-11.4 2.6v22.3c8.3 0 15.9-1.9 22.4-5.6 28.2-16.2 34.6-66.8 20.2-130.4 62.4-19.1 103.1-49.9 103.1-82.4zm-340.2 0c0-12.9 10.5-23.3 23.3-23.3s23.3 10.5 23.3 23.3c0 12.9-10.5 23.3-23.3 23.3s-23.3-10.4-23.3-23.3z"/></g></svg>
